<svg xmlns="http://www.w3.org/2000/svg" version="1.1" xmlns:xlink="http://www.w3.org/1999/xlink" xmlns:svgjs="http://svgjs.com/svgjs" height="56.5" width="259.52001953125"><defs id="SvgjsDefs36907"></defs><g id="SvgjsG36908" rel="mainfill" name="main_text" xmlns:name="main_text" transform="translate(-4.400000095367432,-204.4600067138672)" fill="#ffffff"><path d="M27.23 240L27.47 237.33L7.19 237.33L7.19 227.60L24.99 227.60L25.15 224.90L7.19 224.90L7.19 215.16L27.23 215.16L27.47 212.46L4.40 212.46L4.40 240ZM34.03 240L43.50 227.99L53.00 240L56.32 240L45.16 225.90L55.78 212.46L52.38 212.46L43.46 223.74L34.57 212.46L31.25 212.46L41.80 225.86L30.63 240ZM85.10 240L88.19 240L74.09 212.46L71.77 212.46L57.64 240L60.73 240L63.97 233.63L81.86 233.63ZM72.93 216.05L80.62 231.19L65.21 231.19ZM95.96 240L95.96 227.60L116.89 227.60L116.89 240L119.68 240L119.68 212.46L116.89 212.46L116.89 224.90L95.96 224.90L95.96 212.46L93.18 212.46L93.18 240ZM146.64 240L146.64 229.65L161.59 229.65C165.57 229.65 168.85 227.14 168.85 221.03C168.85 214.97 165.57 212.46 161.59 212.46L143.86 212.46L143.86 240ZM161.59 215.16C164.06 215.16 166.11 216.90 166.11 221.03C166.11 225.24 164.06 226.98 161.59 226.98L146.64 226.98L146.64 215.16ZM199.25 240L202.34 240L188.24 212.46L185.93 212.46L171.79 240L174.88 240L178.12 233.63L196.01 233.63ZM187.09 216.05L194.77 231.19L179.36 231.19ZM225.06 229.65C229.08 229.65 232.32 227.14 232.32 221.03C232.32 214.97 229.08 212.46 225.06 212.46L207.33 212.46L207.33 240L210.11 240L210.11 229.65L218.92 229.65L228.26 240L231.86 240L222.55 229.65ZM225.06 215.16C227.53 215.16 229.58 216.90 229.58 221.03C229.58 225.24 227.53 226.98 225.06 226.98L210.11 226.98L210.11 215.16ZM242.17 240L242.17 227.60L249.12 227.60L260.33 240L263.92 240L251.56 226.25L263.92 212.46L260.33 212.46L249.09 224.90L242.17 224.90L242.17 212.46L239.39 212.46L239.39 240Z" fill="#ffffff" style="fill: rgb(255, 255, 255);"></path></g><g id="SvgjsG36909" rel="mainfill" name="slogan_text" xmlns:name="slogan_text" transform="translate(63.010005474090576,-183.5)" fill="#ffffff"><path d="M8.72 233.15L9.78 232.09L9.78 228.39L8.42 227.04L1.48 227.04L1.48 240L8.44 240L10.16 238.28L10.16 234.61ZM9.61 234.82L9.61 238.07L8.22 239.44L2.04 239.44L2.04 233.43L8.22 233.43ZM2.04 227.60L8.22 227.60L9.22 228.60L9.22 231.87L8.22 232.87L2.04 232.87ZM21.51 240L26.75 240L28.47 238.30L28.47 227.04L27.92 227.04L27.92 238.06L26.51 239.44L21.75 239.44L20.35 238.06L20.35 227.04L19.79 227.04L19.79 238.30ZM44.90 227.60L46.29 228.04L46.45 227.52L45.03 227.04L39.62 227.04L37.92 228.74L37.92 230.87L38.34 231.74L45.69 235.26L46.03 235.89L46.03 238.07L44.64 239.44L39.60 239.44L38.21 238.98L38.05 239.50L39.55 240L44.86 240L46.58 238.30L46.58 235.74L46.10 234.83L38.79 231.35L38.47 230.72L38.47 228.97L39.84 227.60ZM60.87 240L60.87 239.44L58.36 239.44L58.36 227.60L60.87 227.60L60.87 227.04L55.28 227.04L55.28 227.60L57.80 227.60L57.80 239.44L55.28 239.44L55.28 240ZM78.19 240L79.02 240L79.02 227.04L78.46 227.04L78.46 239.37L71.15 227.04L70.32 227.04L70.32 240L70.87 240L70.87 227.67ZM89.39 240L97.29 240L97.29 239.44L89.94 239.44L89.94 233.43L96.51 233.43L96.51 232.87L89.94 232.87L89.94 227.60L97.29 227.60L97.29 227.04L89.39 227.04ZM112.79 227.60L114.18 228.04L114.34 227.52L112.92 227.04L107.51 227.04L105.81 228.74L105.81 230.87L106.23 231.74L113.58 235.26L113.92 235.89L113.92 238.07L112.53 239.44L107.49 239.44L106.11 238.98L105.94 239.50L107.44 240L112.75 240L114.47 238.30L114.47 235.74L113.99 234.83L106.68 231.35L106.36 230.72L106.36 228.97L107.73 227.60ZM130.34 227.60L131.73 228.04L131.90 227.52L130.47 227.04L125.06 227.04L123.36 228.74L123.36 230.87L123.79 231.74L131.14 235.26L131.47 235.89L131.47 238.07L130.08 239.44L125.05 239.44L123.66 238.98L123.49 239.50L124.99 240L130.30 240L132.02 238.30L132.02 235.74L131.54 234.83L124.23 231.35L123.92 230.72L123.92 228.97L125.29 227.60Z" fill="#ffffff" style="fill: rgb(255, 255, 255);"></path></g></svg>