<?xml version="1.0" encoding="iso-8859-1"?>
<!-- Generator: Adobe Illustrator 19.0.0, SVG Export Plug-In . SVG Version: 6.00 Build 0)  -->
<svg version="1.1" id="Capa_1" xmlns="http://www.w3.org/2000/svg" xmlns:xlink="http://www.w3.org/1999/xlink" x="0px" y="0px"
	 viewBox="0 0 400.002 400.002" style="enable-background:new 0 0 400.002 400.002;" xml:space="preserve">
<g>
	<g>
		<g>
			<path d="M76.489,321.32c-17.862,0-32.342,14.48-32.342,32.342c0,17.862,14.48,32.342,32.342,32.342s32.342-14.48,32.342-32.342
				C108.811,335.808,94.343,321.34,76.489,321.32z"/>
			<path d="M304.553,224.904l8.838,3.829l10.5-4.461c0.018-0.007-0.319-0.015-0.3-0.023c42.752-18,70.513-59.912,70.409-106.298
				v-60.94l-80.675-43.013L235,56.947v62.233C235,164.965,262.486,206.464,304.553,224.904z M272.755,113.098
				c3.36-2.869,8.409-2.472,11.279,0.888c0,0,0,0,0,0l18.275,21.4l48.315-39.308c3.427-2.789,8.467-2.271,11.256,1.156
				c2.789,3.427,2.271,8.467-1.156,11.256l-54.375,44.238c-0.076,0.062-0.156,0.115-0.233,0.173c-0.077,0.058-0.178,0.138-0.27,0.2
				c-0.092,0.062-0.216,0.141-0.324,0.209c-0.092,0.057-0.183,0.116-0.276,0.169c-0.115,0.065-0.232,0.123-0.349,0.182
				c-0.091,0.046-0.181,0.095-0.273,0.137c-0.125,0.057-0.252,0.106-0.378,0.156c-0.088,0.034-0.174,0.073-0.263,0.1
				c-0.135,0.049-0.274,0.088-0.412,0.129c-0.081,0.024-0.162,0.052-0.244,0.074c-0.146,0.038-0.3,0.067-0.443,0.1
				c-0.075,0.015-0.15,0.035-0.226,0.047c-0.163,0.028-0.327,0.046-0.491,0.064c-0.061,0.007-0.122,0.018-0.185,0.023
				c-0.225,0.019-0.451,0.029-0.677,0.029c-0.287,0-0.574-0.016-0.859-0.046c-0.081-0.009-0.162-0.028-0.243-0.039
				c-0.2-0.028-0.4-0.056-0.6-0.1c-0.1-0.022-0.2-0.055-0.3-0.08c-0.18-0.046-0.359-0.09-0.534-0.148
				c-0.109-0.036-0.213-0.084-0.321-0.124c-0.162-0.062-0.325-0.121-0.484-0.194c-0.112-0.052-0.221-0.114-0.331-0.171
				c-0.148-0.076-0.3-0.149-0.44-0.235c-0.113-0.068-0.22-0.146-0.331-0.22c-0.133-0.089-0.268-0.176-0.4-0.274
				c-0.11-0.084-0.214-0.178-0.32-0.268c-0.121-0.1-0.245-0.2-0.361-0.313c-0.116-0.113-0.2-0.206-0.3-0.31s-0.184-0.183-0.27-0.283
				l-23.348-27.342C268.997,121.013,269.396,115.966,272.755,113.098z"/>
			<path d="M387.514,278.526l-37.176-16.94c-1.394-0.654-2.559-1.712-3.345-3.036l-13.2-21.179
				c-1.193,0.546-2.357,1.092-3.572,1.606l-13.476,5.829c-2.026,0.88-4.326,0.884-6.356,0.013l-11.98-4.919
				c-22.849-10.047-42.425-26.295-56.509-46.902h-84.413c-9.892-0.102-19.266,4.415-25.351,12.215l-41.353,54.073
				c-1.086,1.381-2.597,2.366-4.3,2.8l-69.71,18.857C7.285,283.536,0,292.182,0,302.018v25.248c0,12.066,11.133,22.732,23.2,22.732
				h5.167c2.489-26.578,26.052-46.106,52.63-43.617c23.133,2.166,41.451,20.485,43.617,43.617h147.792
				c2.489-26.578,26.052-46.106,52.63-43.618c23.133,2.166,41.451,20.485,43.617,43.618H378.8c12.066,0,21.2-10.666,21.2-22.732
				v-28.82C400.128,289.926,395.239,282.125,387.514,278.526z"/>
			<path d="M320.53,321.32c-17.862-0.001-32.342,14.479-32.343,32.341s14.479,32.342,32.341,32.343s32.342-14.479,32.343-32.341
				c0,0,0-0.001,0-0.001C352.851,335.809,338.383,321.341,320.53,321.32z"/>
		</g>
	</g>
</g>
<g>
</g>
<g>
</g>
<g>
</g>
<g>
</g>
<g>
</g>
<g>
</g>
<g>
</g>
<g>
</g>
<g>
</g>
<g>
</g>
<g>
</g>
<g>
</g>
<g>
</g>
<g>
</g>
<g>
</g>
</svg>
